<mxfile host="app.diagrams.net" modified="2023-04-15T09:17:15.095Z" agent="Mozilla/5.0 (Macintosh; Intel Mac OS X 10_15_7) AppleWebKit/537.36 (KHTML, like Gecko) Chrome/112.0.0.0 Safari/537.36 Edg/112.0.1722.39" version="21.1.8" etag="EDbiMvgK8PhD1QB9c_6V" type="github">
  <diagram name="第 1 页" id="HB-Csvn5Qec1k67etYKc">
    <mxGraphModel>
      <root>
        <mxCell id="0" />
        <mxCell id="1" parent="0" />
      </root>
    </mxGraphModel>
  </diagram>
</mxfile>
